<svg xmlns="http://www.w3.org/2000/svg" width="120" height="120"><path d="M0 0h120v120H0V0Z" fill="#4A0B3D"/><path d="M58 17c4.614.445 8.302 2.597 12.313 4.75 7.02 3.662 14.051 6.175 21.652 8.34C95 31 95 31 96 32c1.59 17.208-.703 35.84-11.5 49.875A280.976 280.976 0 0 1 81 86l-2.281 2.887c-2.89 3.465-6.193 6.252-9.719 9.05l-1.828 1.534c-4.404 3.508-4.404 3.508-7.777 3.6C45.16 96.707 33.876 81.522 28.187 67.5c-3.15-8.83-4.368-17.17-4.625-26.5l-.104-2.251C23.44 36.625 23.44 36.625 24 33c3.56-3.215 8.608-4.334 13.125-5.813C48.394 23.573 48.394 23.573 58 17Z" fill="#FBC402"/><path d="M58 17c4.614.445 8.302 2.597 12.313 4.75 7.02 3.662 14.051 6.175 21.652 8.34C95 31 95 31 96 32c1.59 17.208-.703 35.84-11.5 49.875A280.976 280.976 0 0 1 81 86l-2.281 2.887c-2.89 3.465-6.193 6.252-9.719 9.05l-1.828 1.534c-4.404 3.508-4.404 3.508-7.777 3.6C45.16 96.707 33.876 81.522 28.187 67.5c-3.15-8.83-4.368-17.17-4.625-26.5l-.104-2.251C23.44 36.625 23.44 36.625 24 33c3.56-3.215 8.608-4.334 13.125-5.813C48.394 23.573 48.394 23.573 58 17Zm-7.625 11.813c-5.45 2.837-10.663 5.205-16.652 6.714-1.74.325-1.74.325-2.723 1.473-1.581 15.554 2.54 31.7 12.328 43.902C50.263 89.04 50.263 89.04 59 95c4.213-.106 6.909-3.265 9.813-6 .53-.498 1.062-.995 1.61-1.508 11.346-10.821 18.235-23.534 18.69-39.449A346.73 346.73 0 0 0 89 37l-1.725-.67a2586 2586 0 0 1-7.838-3.08l-2.712-1.055c-4.046-1.6-7.901-3.204-11.627-5.46-5.8-3.247-9.411-.767-14.723 2.078Z" fill="#F7C003"/><path d="M60.77 25.168c3.654.941 6.588 2.372 9.917 4.145C76.632 32.412 82.621 34.904 89 37c.83 16.059-1.376 31.909-12.313 44.513C73.615 84.847 70.376 87.973 67 91l-2.586 2.375C62 95 62 95 59.98 94.961 48.795 89.534 39.653 78.27 34.996 66.94 31.626 56.987 30.53 47.471 31 37l3.48-1.277c4.34-1.628 8.59-3.423 12.833-5.285l2.126-.92c10.11-4.424 10.11-4.424 11.33-4.35Zm-7.52 6.645C41.564 37.788 41.564 37.788 35 39c-.837 15.294 1.996 28.888 12.443 40.621C53.411 86.503 53.411 86.503 61 91c13.72-11.85 22.586-23.45 25-42 .062-1.624.087-3.25.063-4.875l-.028-2.367L86 40l-1.695-.629c-6.067-2.331-11.826-5.056-17.57-8.084-5.673-2.936-7.936-2.369-13.485.526Z" fill="#541539"/><path d="M76.879 46.664 79 47c.729 2.223.729 2.223 1 5-1.46 2.22-1.46 2.22-3.664 4.426l-2.402 2.412-2.559 2.474-2.488 2.534c-6.14 6.055-6.14 6.055-9.5 6.499-3.456-.5-5.076-2.147-7.637-4.47l-2.64-2.32C46.685 60.62 46.191 58.765 46 55c1-1 1-1 3.188-1.438C53.38 54.215 55.303 56.886 58 60c4.716-1.877 7.98-5.655 11.49-9.188 2.469-2.371 3.928-3.744 7.389-4.148Z" fill="#4F103A"/></svg>